<?xml version="1.0" encoding="UTF-8"?>
<svg id="Layer_1" data-name="Layer 1" xmlns="http://www.w3.org/2000/svg" viewBox="0 0 444.62 59.45">
  <defs>
    <style>
      .cls-1 {
        fill: #152740;
      }
    </style>
  </defs>
  <path class="cls-1" d="M104,16.9v14.82c0,7.03-3.86,10.73-10.54,10.73-3.41,0-6.05-1.11-7.69-2.87-1.67,1.76-4.24,2.87-7.65,2.87-6.68,0-10.54-3.7-10.54-10.73v-14.82h5.63v14.64c0,4.16,1.7,5.96,4.83,5.96s4.9-1.79,4.9-5.96v-14.64h5.63v14.64c0,4.16,1.81,5.96,4.94,5.96s4.8-1.79,4.8-5.96v-14.64h5.67Z"/>
  <path class="cls-1" d="M56.23,20.55c-1.71-2.55-4.13-5.31-8.07-9.26C41.01,4.14,35.7,0,29.72,0c-3,0-5.92,1.02-9.17,3.21-2.54,1.72-5.31,4.13-9.26,8.08C4.14,18.44,0,23.75,0,29.72c0,3,1.02,5.92,3.21,9.17,1.71,2.55,4.13,5.31,8.07,9.26,7.15,7.15,12.46,11.29,18.43,11.29,3,0,5.92-1.02,9.17-3.22,2.54-1.71,5.31-4.13,9.26-8.07,7.15-7.15,11.29-12.46,11.29-18.43,0-3-1.02-5.92-3.21-9.17M43.9,43.9c-12.26,12.26-16.09,12.26-28.36,0-12.26-12.26-12.26-16.09,0-28.36,12.26-12.26,16.1-12.26,28.36,0,12.26,12.26,12.26,16.1,0,28.36"/>
  <path class="cls-1" d="M30.69,16.88l-.4-3.75c-.07-.69-1.07-.69-1.15,0l-.4,3.75c-.66,6.26-5.61,11.21-11.87,11.87l-3.75.4c-.69.07-.69,1.07,0,1.15l3.75.4c6.26.66,11.21,5.61,11.87,11.87l.4,3.75c.07.69,1.07.69,1.15,0l.4-3.75c.66-6.26,5.61-11.21,11.87-11.87l3.75-.4c.69-.07.69-1.07,0-1.15l-3.75-.4c-6.26-.66-11.21-5.61-11.87-11.87M29.72,33.84c-2.27,0-4.12-1.84-4.12-4.11s1.84-4.12,4.12-4.12,4.12,1.84,4.12,4.12-1.84,4.11-4.12,4.11"/>
  <path class="cls-1" d="M311.21,28.48v13.79h-5.63v-6.05h-11.13v6.05h-5.56v-13.79c0-7.67,4.49-11.84,11.16-11.84s11.16,4.18,11.16,11.84ZM305.58,31.54v-3.6c0-4.28-2.23-6.34-5.56-6.34s-5.56,2.05-5.56,6.34v3.6h11.13Z"/>
  <g>
    <path class="cls-1" d="M322.88,42.8c-1.3,0-2.51-.24-3.63-.73-1.12-.49-2.12-1.17-2.97-2.03s-1.52-1.88-2-3.03c-.48-1.15-.71-2.38-.71-3.7,0-1.76.41-3.36,1.23-4.78.82-1.43,1.96-2.57,3.41-3.42,1.45-.86,3.09-1.29,4.92-1.29,1.65-.02,3.12.27,4.42.87,1.3.6,2.33,1.44,3.09,2.5l-3.62,2.96c-.42-.63-.96-1.12-1.62-1.5-.66-.37-1.4-.56-2.21-.56-1,0-1.87.24-2.61.71-.74.48-1.32,1.11-1.72,1.9-.41.79-.61,1.66-.61,2.61s.21,1.79.64,2.59c.43.8,1.02,1.44,1.77,1.91.75.48,1.63.71,2.62.71.9,0,1.67-.2,2.29-.61s1.17-.92,1.63-1.55l3.41,2.96c-.86,1.09-1.92,1.94-3.18,2.56s-2.79.92-4.57.92Z"/>
    <path class="cls-1" d="M339.99,42.8c-1.65,0-3.15-.42-4.5-1.27s-2.43-1.98-3.23-3.41c-.8-1.42-1.2-3.01-1.2-4.75,0-1.3.23-2.52.7-3.67.46-1.15,1.1-2.16,1.91-3.03.81-.87,1.76-1.55,2.83-2.05,1.08-.5,2.24-.75,3.49-.75,1.58,0,2.8.3,3.69.89.88.59,1.56,1.37,2.05,2.35v-2.85h4.66v18.08h-4.56v-2.96c-.49,1.02-1.18,1.84-2.07,2.47-.89.63-2.15.94-3.77.94ZM340.75,38.56c1.04,0,1.94-.24,2.69-.71.75-.48,1.34-1.11,1.76-1.9.42-.79.63-1.65.63-2.57s-.21-1.82-.63-2.61c-.42-.79-1-1.43-1.76-1.91-.75-.49-1.65-.73-2.69-.73s-1.87.24-2.63.71c-.75.48-1.34,1.11-1.76,1.9s-.63,1.66-.63,2.61.21,1.76.63,2.56,1,1.44,1.76,1.93c.75.49,1.63.73,2.63.73Z"/>
    <path class="cls-1" d="M361.75,42.8c-1.65,0-3.15-.42-4.5-1.27s-2.43-1.98-3.23-3.41c-.8-1.42-1.2-3.01-1.2-4.75,0-1.3.23-2.52.7-3.67.46-1.15,1.1-2.16,1.91-3.03.81-.87,1.76-1.55,2.83-2.05,1.08-.5,2.24-.75,3.49-.75,1.55,0,2.77.29,3.65.87s1.56,1.34,2.05,2.29v-10.08h4.69v25.38h-4.56v-2.96c-.49,1.02-1.18,1.84-2.07,2.47-.89.63-2.15.94-3.77.94ZM362.52,38.56c1.04,0,1.94-.24,2.69-.71.75-.48,1.34-1.11,1.76-1.9.42-.79.63-1.65.63-2.57s-.21-1.82-.63-2.61c-.42-.79-1-1.43-1.76-1.91-.75-.49-1.65-.73-2.69-.73s-1.87.24-2.63.71c-.75.48-1.34,1.11-1.76,1.9s-.63,1.66-.63,2.61.21,1.76.63,2.56,1,1.44,1.76,1.93c.75.49,1.63.73,2.63.73Z"/>
    <path class="cls-1" d="M383.94,42.8c-1.85,0-3.49-.43-4.9-1.29s-2.51-2-3.29-3.42c-.78-1.43-1.17-3.01-1.17-4.75s.41-3.33,1.22-4.78,1.92-2.6,3.32-3.46c1.4-.86,3.01-1.29,4.82-1.29s3.4.43,4.78,1.29c1.38.86,2.46,2.01,3.23,3.46.78,1.45,1.17,3.04,1.17,4.78,0,.25-.01.52-.04.8-.02.28-.06.57-.1.87h-13.53c.25,1.07.77,1.94,1.55,2.61.78.67,1.76,1.01,2.94,1.01,1.02,0,1.91-.23,2.66-.7.75-.46,1.34-1.04,1.76-1.74l3.65,2.75c-.72,1.14-1.8,2.06-3.23,2.78-1.44.72-3.05,1.08-4.83,1.08ZM383.87,27.85c-1.11,0-2.06.34-2.85,1.01s-1.31,1.55-1.56,2.64h8.94c-.25-1-.78-1.85-1.58-2.57-.8-.72-1.78-1.08-2.94-1.08Z"/>
    <path class="cls-1" d="M395.55,42.35v-18.08h4.62v2.64c.95-2.04,2.79-3.06,5.53-3.06,1.27,0,2.42.3,3.44.89,1.02.59,1.83,1.43,2.43,2.52.6-1.09,1.37-1.93,2.31-2.52s2.21-.89,3.81-.89c1.3,0,2.47.3,3.51.9,1.04.6,1.87,1.46,2.47,2.57.6,1.11.9,2.43.9,3.96v11.06h-4.69v-9.91c0-1.58-.34-2.72-1.01-3.43-.67-.71-1.54-1.06-2.61-1.06s-1.98.31-2.66.94-1.03,1.81-1.03,3.55v9.91h-4.69v-9.91c0-1.58-.36-2.72-1.08-3.43-.72-.71-1.66-1.06-2.82-1.06-1,0-1.87.35-2.63,1.06-.75.71-1.13,1.85-1.13,3.43v9.91h-4.69Z"/>
    <path class="cls-1" d="M428.59,49.62c-.46,0-.99-.02-1.56-.07-.58-.05-1.1-.14-1.56-.28l.7-4.49c.65.16,1.36.24,2.12.24.9,0,1.65-.26,2.23-.78.58-.52,1-1.18,1.25-1.96l.24-.77-7.16-17.25h5.67l3.51,10.33c.32.93.58,1.89.77,2.89.18-1,.44-1.96.76-2.89l3.51-10.33h5.56l-8,19.23c-.77,1.83-1.76,3.31-2.99,4.43-1.23,1.12-2.91,1.69-5.04,1.69Z"/>
  </g>
  <g>
    <path class="cls-1" d="M207.54,42.32v-18.08h4.56v3.44c.3-1.3.92-2.29,1.84-2.97.93-.68,2.18-.98,3.76-.89v4.42h-.66c-1.34,0-2.48.43-3.41,1.29-.93.86-1.39,2.04-1.39,3.55v9.25h-4.69Z"/>
    <path class="cls-1" d="M227.05,42.77c-1.65,0-3.15-.42-4.5-1.27-1.36-.85-2.43-1.98-3.23-3.41s-1.2-3.01-1.2-4.75c0-1.3.23-2.52.7-3.67.46-1.15,1.1-2.16,1.91-3.03.81-.87,1.76-1.55,2.83-2.05,1.08-.5,2.24-.75,3.49-.75,1.58,0,2.8.3,3.69.89.88.59,1.56,1.37,2.05,2.35v-2.85h4.66v18.08h-4.55v-2.96c-.49,1.02-1.18,1.84-2.07,2.47-.89.63-2.15.94-3.77.94ZM227.81,38.53c1.04,0,1.94-.24,2.69-.71.75-.47,1.34-1.11,1.76-1.89.42-.79.63-1.65.63-2.57s-.21-1.82-.63-2.61c-.42-.79-1-1.43-1.76-1.91s-1.65-.73-2.69-.73-1.87.24-2.63.71c-.75.48-1.34,1.11-1.76,1.9-.42.79-.63,1.66-.63,2.61s.21,1.76.63,2.56c.42.8,1,1.44,1.76,1.93.75.49,1.63.73,2.63.73Z"/>
    <path class="cls-1" d="M240.57,42.32v-18.08h4.62v2.64c.95-2.04,2.79-3.06,5.53-3.06,1.3,0,2.47.3,3.51.9,1.04.6,1.87,1.46,2.47,2.57.6,1.11.9,2.43.9,3.96v11.06h-4.69v-9.91c0-1.58-.36-2.72-1.08-3.43-.72-.71-1.66-1.06-2.82-1.06-1,0-1.87.35-2.63,1.06-.75.71-1.13,1.85-1.13,3.43v9.91h-4.69Z"/>
    <path class="cls-1" d="M268.84,42.77c-1.65,0-3.15-.42-4.5-1.27-1.36-.85-2.43-1.98-3.23-3.41s-1.2-3.01-1.2-4.75c0-1.3.23-2.52.7-3.67s1.1-2.16,1.91-3.03c.81-.87,1.76-1.55,2.83-2.05,1.08-.5,2.24-.75,3.49-.75,1.55,0,2.77.29,3.65.87s1.56,1.34,2.05,2.29v-10.08h4.69v25.38h-4.56v-2.96c-.49,1.02-1.18,1.84-2.07,2.47-.89.63-2.15.94-3.77.94ZM269.61,38.53c1.04,0,1.94-.24,2.69-.71.75-.47,1.34-1.11,1.76-1.89.42-.79.63-1.65.63-2.57s-.21-1.82-.63-2.61c-.42-.79-1-1.43-1.76-1.91-.75-.49-1.65-.73-2.69-.73s-1.87.24-2.63.71c-.75.48-1.34,1.11-1.76,1.9-.42.79-.63,1.66-.63,2.61s.21,1.76.63,2.56,1,1.44,1.76,1.93c.75.49,1.63.73,2.63.73Z"/>
  </g>
  <path class="cls-1" d="M205.37,35.36c0,4.4-3.34,6.95-9.74,6.95h-12.59v-25.48h11.89c6.09,0,9.22,2.66,9.22,6.62,0,2.55-1.25,4.51-3.23,5.6,2.71.91,4.45,3.09,4.45,6.3ZM188.64,21.28v6h5.6c2.75,0,4.24-1.02,4.24-3.02s-1.5-2.98-4.24-2.98h-5.6ZM199.7,34.74c0-2.15-1.56-3.17-4.49-3.17h-6.57v6.3h6.57c2.92,0,4.49-.95,4.49-3.13Z"/>
  <g>
    <path class="cls-1" d="M107.01,42.3v-25.38h4.69v9.81c.97-1.95,2.79-2.92,5.46-2.92,1.3,0,2.47.3,3.51.9,1.04.6,1.87,1.46,2.47,2.57.6,1.11.9,2.43.9,3.96v11.06h-4.69v-9.91c0-1.58-.36-2.72-1.08-3.43-.72-.71-1.66-1.06-2.82-1.06-1,0-1.87.35-2.63,1.06-.75.71-1.13,1.85-1.13,3.43v9.91h-4.69Z"/>
    <path class="cls-1" d="M135.9,42.75c-1.85,0-3.51-.43-4.97-1.29s-2.6-2-3.43-3.42-1.23-3.01-1.23-4.75.41-3.33,1.23-4.76c.82-1.44,1.96-2.58,3.43-3.44,1.46-.86,3.12-1.29,4.97-1.29s3.54.43,4.99,1.29c1.45.86,2.58,2.01,3.41,3.44.82,1.44,1.23,3.03,1.23,4.76s-.41,3.32-1.23,4.75c-.82,1.43-1.96,2.57-3.41,3.42-1.45.86-3.11,1.29-4.99,1.29ZM135.9,38.48c1,0,1.87-.24,2.61-.71.74-.47,1.32-1.11,1.72-1.9.41-.79.61-1.65.61-2.57s-.2-1.82-.61-2.61c-.41-.79-.98-1.42-1.72-1.9-.74-.47-1.61-.71-2.61-.71s-1.87.24-2.61.71c-.74.48-1.32,1.11-1.72,1.9s-.61,1.66-.61,2.61.2,1.79.61,2.57c.41.79.98,1.42,1.72,1.9.74.48,1.61.71,2.61.71Z"/>
    <path class="cls-1" d="M147.94,42.3v-25.38h4.69v25.38h-4.69Z"/>
    <path class="cls-1" d="M164.35,42.75c-1.85,0-3.49-.43-4.9-1.29-1.41-.86-2.51-2-3.29-3.42-.78-1.43-1.17-3.01-1.17-4.75s.41-3.33,1.22-4.78c.81-1.45,1.92-2.6,3.32-3.46,1.4-.86,3.01-1.29,4.82-1.29s3.4.43,4.78,1.29c1.38.86,2.46,2.01,3.23,3.46.78,1.45,1.16,3.04,1.16,4.78,0,.25-.01.52-.03.8-.02.28-.06.57-.1.87h-13.53c.25,1.07.77,1.94,1.55,2.61.78.67,1.76,1.01,2.94,1.01,1.02,0,1.91-.23,2.66-.7.75-.46,1.34-1.04,1.76-1.74l3.65,2.75c-.72,1.14-1.8,2.06-3.23,2.78-1.44.72-3.05,1.08-4.83,1.08ZM164.28,27.8c-1.11,0-2.06.34-2.85,1.01-.79.67-1.31,1.55-1.56,2.64h8.94c-.26-1-.78-1.85-1.58-2.57-.8-.72-1.78-1.08-2.94-1.08Z"/>
  </g>
</svg>