<?xml version="1.0" encoding="UTF-8"?>
<svg id="Layer_1" data-name="Layer 1" xmlns="http://www.w3.org/2000/svg" viewBox="0 0 81.88 81.88">
  <defs>
    <style>
      .cls-1 {
        fill: #152740;
      }
    </style>
  </defs>
  <path class="cls-1" d="M67.66,31.85c-1.71-2.55-4.13-5.31-8.07-9.26-7.15-7.15-12.46-11.29-18.43-11.29-3,0-5.92,1.02-9.17,3.21-2.54,1.72-5.31,4.13-9.26,8.08-7.15,7.15-11.29,12.46-11.29,18.43,0,3,1.02,5.92,3.21,9.17,1.71,2.55,4.13,5.31,8.07,9.26,7.15,7.15,12.46,11.29,18.43,11.29,3,0,5.92-1.02,9.17-3.22,2.54-1.71,5.31-4.13,9.26-8.07,7.15-7.15,11.29-12.46,11.29-18.43,0-3-1.02-5.92-3.21-9.17M55.33,55.2c-12.26,12.26-16.09,12.26-28.36,0-12.26-12.26-12.26-16.09,0-28.36,12.26-12.26,16.1-12.26,28.36,0,12.26,12.26,12.26,16.1,0,28.36"/>
  <path class="cls-1" d="M42.12,28.18l-.4-3.75c-.07-.69-1.07-.69-1.15,0l-.4,3.75c-.66,6.26-5.61,11.21-11.87,11.87l-3.75.4c-.69.07-.69,1.07,0,1.15l3.75.4c6.26.66,11.21,5.61,11.87,11.87l.4,3.75c.07.69,1.07.69,1.15,0l.4-3.75c.66-6.26,5.61-11.21,11.87-11.87l3.75-.4c.69-.07.69-1.07,0-1.15l-3.75-.4c-6.26-.66-11.21-5.61-11.87-11.87M41.15,45.14c-2.27,0-4.12-1.84-4.12-4.11s1.84-4.12,4.12-4.12,4.12,1.84,4.12,4.12-1.84,4.11-4.12,4.11"/>
</svg>