<?xml version="1.0" encoding="UTF-8"?>
<svg id="Layer_1" data-name="Layer 1" xmlns="http://www.w3.org/2000/svg" viewBox="0 0 81.88 81.88">
  <defs>
    <style>
      .cls-1 {
        fill: #152740;
      }
    </style>
  </defs>
  <path class="cls-1" d="M42.12,28.18l-.4-3.75c-.07-.69-1.07-.69-1.15,0l-.4,3.75c-.66,6.26-5.61,11.21-11.87,11.87l-3.75.4c-.69.07-.69,1.07,0,1.15l3.75.4c6.26.66,11.21,5.61,11.87,11.87l.4,3.75c.07.69,1.07.69,1.15,0l.4-3.75c.66-6.26,5.61-11.21,11.87-11.87l3.75-.4c.69-.07.69-1.07,0-1.15l-3.75-.4c-6.26-.66-11.21-5.61-11.87-11.87M41.15,45.14c-2.27,0-4.12-1.84-4.12-4.11s1.84-4.12,4.12-4.12,4.12,1.84,4.12,4.12-1.84,4.11-4.12,4.11"/>
</svg>